<?xml version="1.0" encoding="UTF-8" standalone="no"?>
<svg
   data-name="Layer 1"
   version="1.1"
   viewBox="0 0 246 54"
   width="246"
   height="54"
   id="svg20"
   sodipodi:docname="ifs-certified.svg"
   inkscape:version="1.3.2 (1:1.3.2+202311252150+091e20ef0f)"
   xmlns:inkscape="http://www.inkscape.org/namespaces/inkscape"
   xmlns:sodipodi="http://sodipodi.sourceforge.net/DTD/sodipodi-0.dtd"
   xmlns="http://www.w3.org/2000/svg"
   xmlns:svg="http://www.w3.org/2000/svg"
   xmlns:rdf="http://www.w3.org/1999/02/22-rdf-syntax-ns#"
   xmlns:cc="http://creativecommons.org/ns#"
   xmlns:dc="http://purl.org/dc/elements/1.1/">
  <sodipodi:namedview
     id="namedview20"
     pagecolor="#ffffff"
     bordercolor="#666666"
     borderopacity="1.0"
     inkscape:showpageshadow="2"
     inkscape:pageopacity="0.0"
     inkscape:pagecheckerboard="0"
     inkscape:deskcolor="#d1d1d1"
     inkscape:zoom="3.3275"
     inkscape:cx="200"
     inkscape:cy="26.89707"
     inkscape:window-width="1920"
     inkscape:window-height="1011"
     inkscape:window-x="0"
     inkscape:window-y="0"
     inkscape:window-maximized="1"
     inkscape:current-layer="g20" />
  <defs
     id="defs1">
    <style
       id="style1">.cls-1{fill:#4d8a99;}.cls-2{fill:#962329;}.cls-3{fill:#c8752e;}.cls-4{fill:none;}</style>
  </defs>
  <title
     id="title1">logo</title>
  <path
     class="cls-2"
     d="m 75.8,45.56 q 6.28,0 9.84,-2.76 3.56,-2.76 3.55,-8.43 a 10.9,10.9 0 0 0 -1.74,-6.26 q -1.74,-2.56 -6.42,-5.37 a 40.63,40.63 0 0 1 -5.65,-3.83 4.31,4.31 0 0 1 -1.74,-3.22 q 0,-4.68 4.9,-4.68 a 6.44,6.44 0 0 1 4.58,1.76 10.56,10.56 0 0 1 2.75,5.13 1.1,1.1 0 0 0 0.5,0.63 1.59,1.59 0 0 0 0.88,0.25 1.2,1.2 0 0 0 0.77,-0.22 0.63,0.63 0 0 0 0.28,-0.5 29.79,29.79 0 0 0 -0.55,-6.67 3.91,3.91 0 0 0 -0.55,-1.21 2.45,2.45 0 0 0 -1,-0.61 18.51,18.51 0 0 0 -3.33,-1 19.9,19.9 0 0 0 -4,-0.41 16.37,16.37 0 0 0 -6.62,1.32 11.36,11.36 0 0 0 -4.79,3.77 9.43,9.43 0 0 0 -1.76,5.65 10,10 0 0 0 1.29,5.21 11.85,11.85 0 0 0 3.17,3.55 42.15,42.15 0 0 0 5,3 21.47,21.47 0 0 1 4.9,3.36 5.18,5.18 0 0 1 1.38,3.75 5.44,5.44 0 0 1 -1.27,3.5 4.41,4.41 0 0 1 -3.64,1.57 A 7.71,7.71 0 0 1 70.8,40.25 17,17 0 0 1 67,33.36 1.46,1.46 0 0 0 66.56,32.78 1.58,1.58 0 0 0 65.79,32.64 c -0.7,0 -1,0.24 -1,0.72 0,0.48 -0.06,1 -0.06,1.76 a 19.08,19.08 0 0 0 1,6.72 2.84,2.84 0 0 0 1.27,1.38 16.87,16.87 0 0 0 8.87,2.26"
     id="path1" />
  <path
     class="cls-3"
     d="m 32.65,44.95 q 2.09,0 4.3,-0.17 3,-0.11 4,-0.11 l 4.46,0.11 4.8,0.11 q 0.88,0 0.88,-0.83 a 1.12,1.12 0 0 0 -0.25,-0.77 1.43,1.43 0 0 0 -0.8,-0.39 9.94,9.94 0 0 1 -3.39,-1.21 2.68,2.68 0 0 1 -0.91,-2.31 q 0,-3.42 -0.06,-5.18 l -0.05,-5.18 q 0,-1.27 1.21,-1.27 h 5.73 a 2.27,2.27 0 0 1 1.68,0.63 5.59,5.59 0 0 1 1.13,2.29 2.17,2.17 0 0 0 0.55,0.94 1.11,1.11 0 0 0 0.77,0.39 c 0.37,0 0.55,-0.37 0.55,-1.1 v -0.46 q -0.22,-2.2 -0.22,-3.8 0,-1.6 0.28,-4.19 a 1.43,1.43 0 0 0 -0.17,-0.91 0.61,0.61 0 0 0 -0.49,-0.36 q -0.72,0 -1.16,1 a 7.78,7.78 0 0 1 -1.24,2.26 2.48,2.48 0 0 1 -2,0.72 h -5.11 q -1.43,0 -1.43,-1.32 v -9.81 a 2.22,2.22 0 0 1 0.88,-1.85 3.56,3.56 0 0 1 2.26,-0.69 h 3.49 a 5.52,5.52 0 0 1 4.08,1.43 6.31,6.31 0 0 1 1.13,1.82 27.41,27.41 0 0 1 1,2.75 1.13,1.13 0 0 0 0.47,0.69 1.23,1.23 0 0 0 0.69,0.25 0.59,0.59 0 0 0 0.52,-0.3 1.47,1.47 0 0 0 0.19,-0.8 q 0,-3.14 -0.28,-7.83 A 1.09,1.09 0 0 0 59.64,8.62 1.75,1.75 0 0 0 58.7,8.34 q -0.61,0 -2.59,0.22 A 48.3,48.3 0 0 1 51.2,8.95 H 40.91 q -1,0 -3.8,-0.11 -2.15,-0.16 -4.13,-0.16 a 1.22,1.22 0 0 0 -0.8,0.25 0.78,0.78 0 0 0 -0.3,0.63 q 0,0.88 1.16,1.16 a 5.09,5.09 0 0 1 2.65,1.18 3.77,3.77 0 0 1 0.65,2.54 v 25 a 3.08,3.08 0 0 1 -0.74,2.34 6.33,6.33 0 0 1 -2.89,1.13 1.2,1.2 0 0 0 -1,1.21 0.71,0.71 0 0 0 0.33,0.58 1.1,1.1 0 0 0 0.66,0.25"
     id="path2" />
  <path
     class="cls-1"
     d="m 10.11,44.95 q 2.09,0 4.3,-0.17 c 2,-0.07 3.31,-0.11 4,-0.11 0.69,0 2.08,0 4.13,0.11 2.05,0.11 3.6,0.11 4.41,0.11 0.59,0 0.88,-0.27 0.88,-0.83 A 1,1 0 0 0 27.58,43.31 1.89,1.89 0 0 0 26.78,42.9 7.2,7.2 0 0 1 23.91,41.6 3,3 0 0 1 23.19,39.37 V 14.44 a 3.44,3.44 0 0 1 0.66,-2.37 6.89,6.89 0 0 1 2.92,-1.38 1.9,1.9 0 0 0 0.8,-0.41 1,1 0 0 0 0.25,-0.74 c 0,-0.55 -0.29,-0.83 -0.88,-0.83 q -1.21,0 -4.41,0.11 -3.2,0.11 -4.13,0.11 c -0.66,0 -2,0 -4,-0.11 Q 12.14,8.66 10.1,8.66 a 1.09,1.09 0 0 0 -0.66,0.25 0.72,0.72 0 0 0 -0.33,0.58 1.2,1.2 0 0 0 1,1.21 6.29,6.29 0 0 1 2.92,1.21 3.45,3.45 0 0 1 0.72,2.48 v 25 a 3.09,3.09 0 0 1 -0.74,2.34 6.35,6.35 0 0 1 -2.89,1.13 1.2,1.2 0 0 0 -1,1.21 0.72,0.72 0 0 0 0.33,0.58 1.09,1.09 0 0 0 0.66,0.25"
     id="path3" />
  <rect
     class="cls-4"
     x="5.4400001"
     y="4.9099998"
     width="389.09"
     height="140.21001"
     id="rect3" />
  <g
     transform="matrix(1.058,0,0,1.058,0.50782,2.4849)"
     fill="#414143"
     style="white-space:pre;shape-inside:url(#rect854)"
     aria-label="Certified Therapist"
     id="g20">
    <path
       d="m 107.9,36.052 q -2.336,0 -4.256,-0.768 -1.92,-0.768 -3.296,-2.24 -1.376,-1.472 -2.144,-3.616 -0.736,-2.176 -0.736,-4.96 0,-2.784 0.832,-4.928 0.864,-2.176 2.304,-3.648 1.44,-1.472 3.36,-2.24 1.92,-0.768 4.096,-0.768 1.376,0 2.464,0.192 1.12,0.192 1.92,0.448 0.832,0.256 1.344,0.512 0.512,0.256 0.704,0.384 l -0.896,2.56 q -0.288,-0.192 -0.832,-0.416 -0.544,-0.224 -1.248,-0.448 -0.672,-0.224 -1.504,-0.352 -0.8,-0.16 -1.632,-0.16 -1.76,0 -3.168,0.608 -1.408,0.608 -2.4,1.76 -0.992,1.152 -1.536,2.816 -0.512,1.632 -0.512,3.68 0,1.984 0.448,3.616 0.48,1.632 1.408,2.816 0.928,1.152 2.304,1.792 1.408,0.64 3.264,0.64 2.144,0 3.552,-0.448 1.408,-0.448 2.112,-0.8 l 0.8,2.56 q -0.224,0.16 -0.8,0.416 -0.576,0.224 -1.44,0.448 -0.864,0.224 -2.016,0.384 -1.152,0.16 -2.496,0.16 z"
       id="path4" />
    <path
       d="m 116.6,27.284 q 0,-2.208 0.64,-3.84 0.64,-1.664 1.696,-2.752 1.056,-1.088 2.432,-1.632 1.376,-0.544 2.816,-0.544 3.36,0 5.152,2.112 1.792,2.08 1.792,6.368 0,0.192 0,0.512 0,0.288 -0.032,0.544 h -11.392 q 0.192,2.592 1.504,3.936 1.312,1.344 4.096,1.344 1.568,0 2.624,-0.256 1.088,-0.288 1.632,-0.544 l 0.416,2.496 q -0.544,0.288 -1.92,0.608 -1.344,0.32 -3.072,0.32 -2.176,0 -3.776,-0.64 -1.568,-0.672 -2.592,-1.824 -1.024,-1.152 -1.536,-2.72 -0.48,-1.6 -0.48,-3.488 z m 11.424,-1.632 q 0.032,-2.016 -1.024,-3.296 -1.024,-1.312 -2.848,-1.312 -1.024,0 -1.824,0.416 -0.768,0.384 -1.312,1.024 -0.544,0.64 -0.864,1.472 -0.288,0.832 -0.384,1.696 z"
       id="path5" />
    <path
       d="m 141.56,18.58 q 0.384,0 0.864,0.064 0.512,0.032 0.992,0.128 0.48,0.064 0.864,0.16 0.416,0.064 0.608,0.128 l -0.512,2.592 q -0.352,-0.128 -1.184,-0.288 -0.8,-0.192 -2.08,-0.192 -0.832,0 -1.664,0.192 -0.8,0.16 -1.056,0.224 v 13.984 h -2.976 V 19.636 q 1.056,-0.384 2.624,-0.704 1.568,-0.352 3.52,-0.352 z"
       id="path6" />
    <path
       d="m 150.56,18.932 h 6.304 v 2.496 h -6.304 v 7.68 q 0,1.248 0.192,2.08 0.192,0.8 0.576,1.28 0.384,0.448 0.96,0.64 0.576,0.192 1.344,0.192 1.344,0 2.144,-0.288 0.832,-0.32 1.152,-0.448 l 0.576,2.464 q -0.448,0.224 -1.568,0.544 -1.12,0.352 -2.56,0.352 -1.696,0 -2.816,-0.416 -1.088,-0.448 -1.76,-1.312 -0.672,-0.864 -0.96,-2.112 -0.256,-1.28 -0.256,-2.944 V 14.292 l 2.976,-0.512 z"
       id="path7" />
    <path
       d="m 163.61,35.572 h -2.976 v -16.64 h 2.976 z m -1.504,-19.648 q -0.8,0 -1.376,-0.512 -0.544,-0.544 -0.544,-1.44 0,-0.896 0.544,-1.408 0.576,-0.544 1.376,-0.544 0.8,0 1.344,0.544 0.576,0.512 0.576,1.408 0,0.896 -0.576,1.44 -0.544,0.512 -1.344,0.512 z"
       id="path8" />
    <path
       d="m 175.23,10.74 q 1.12,0 1.92,0.16 0.8,0.128 1.152,0.256 l -0.416,2.56 q -0.352,-0.128 -0.96,-0.256 -0.608,-0.16 -1.472,-0.16 -2.08,0 -2.912,1.152 -0.832,1.12 -0.832,3.04 v 1.44 h 6.4 v 2.496 h -6.4 v 14.144 h -2.976 V 17.428 q 0,-3.2 1.568,-4.928 1.568,-1.76 4.928,-1.76 z m 8.96,24.832 h -2.976 v -16.64 h 2.976 z m -1.504,-19.648 q -0.8,0 -1.376,-0.512 -0.544,-0.544 -0.544,-1.44 0,-0.896 0.544,-1.408 0.576,-0.544 1.376,-0.544 0.8,0 1.344,0.544 0.576,0.512 0.576,1.408 0,0.896 -0.576,1.44 -0.544,0.512 -1.344,0.512 z"
       id="path9" />
    <path
       d="m 188.38,27.284 q 0,-2.208 0.64,-3.84 0.64,-1.664 1.696,-2.752 1.056,-1.088 2.432,-1.632 1.376,-0.544 2.816,-0.544 3.36,0 5.152,2.112 1.792,2.08 1.792,6.368 0,0.192 0,0.512 0,0.288 -0.032,0.544 h -11.392 q 0.192,2.592 1.504,3.936 1.312,1.344 4.096,1.344 1.568,0 2.624,-0.256 1.088,-0.288 1.632,-0.544 l 0.416,2.496 q -0.544,0.288 -1.92,0.608 -1.344,0.32 -3.072,0.32 -2.176,0 -3.776,-0.64 -1.568,-0.672 -2.592,-1.824 -1.024,-1.152 -1.536,-2.72 -0.48,-1.6 -0.48,-3.488 z m 11.424,-1.632 q 0.032,-2.016 -1.024,-3.296 -1.024,-1.312 -2.848,-1.312 -1.024,0 -1.824,0.416 -0.768,0.384 -1.312,1.024 -0.544,0.64 -0.864,1.472 -0.288,0.832 -0.384,1.696 z"
       id="path10" />
    <path
       d="m 217.95,22.452 q -0.544,-0.448 -1.568,-0.864 -1.024,-0.416 -2.24,-0.416 -1.28,0 -2.208,0.48 -0.896,0.448 -1.472,1.28 -0.576,0.8 -0.832,1.92 -0.256,1.12 -0.256,2.4 0,2.912 1.44,4.512 1.44,1.568 3.84,1.568 1.216,0 2.016,-0.096 0.832,-0.128 1.28,-0.256 z m 0,-11.2 2.976,-0.512 v 24.352 q -1.024,0.288 -2.624,0.576 -1.6,0.288 -3.68,0.288 -1.92,0 -3.456,-0.608 -1.536,-0.608 -2.624,-1.728 -1.088,-1.12 -1.696,-2.72 -0.576,-1.632 -0.576,-3.648 0,-1.92 0.48,-3.52 0.512,-1.6 1.472,-2.752 0.96,-1.152 2.336,-1.792 1.408,-0.64 3.2,-0.64 1.44,0 2.528,0.384 1.12,0.384 1.664,0.736 z"
       id="path11" />
  </g>
  <metadata
     id="metadata20">
    <rdf:RDF>
      <cc:Work
         rdf:about="">
        <dc:title>logo</dc:title>
      </cc:Work>
    </rdf:RDF>
  </metadata>
</svg>
