<?xml version="1.0" encoding="UTF-8" standalone="no"?>
<svg
   width="269.58963"
   height="1062.1781"
   viewBox="0 0 269.58964 1062.1781"
   version="1.1"
   id="svg22"
   sodipodi:docname="wintery-sunburst.svg"
   inkscape:version="1.2 (1:1.2+202206011326+fc4e4096c5)"
   xmlns:inkscape="http://www.inkscape.org/namespaces/inkscape"
   xmlns:sodipodi="http://sodipodi.sourceforge.net/DTD/sodipodi-0.dtd"
   xmlns:xlink="http://www.w3.org/1999/xlink"
   xmlns="http://www.w3.org/2000/svg"
   xmlns:svg="http://www.w3.org/2000/svg">
  <sodipodi:namedview
     id="namedview24"
     pagecolor="#ffffff"
     bordercolor="#666666"
     borderopacity="1.0"
     inkscape:pageshadow="2"
     inkscape:pageopacity="0.0"
     inkscape:pagecheckerboard="0"
     showgrid="false"
     fit-margin-top="0"
     fit-margin-left="0"
     fit-margin-right="0"
     fit-margin-bottom="0"
     inkscape:zoom="0.51316815"
     inkscape:cx="-62.357729"
     inkscape:cy="708.34482"
     inkscape:window-width="1920"
     inkscape:window-height="1016"
     inkscape:window-x="0"
     inkscape:window-y="0"
     inkscape:window-maximized="1"
     inkscape:current-layer="svg22"
     inkscape:showpageshadow="2"
     inkscape:deskcolor="#d1d1d1" />
  <defs
     id="defs14">
    <radialGradient
       id="radialGradient1757"
       cx="136.73227"
       cy="1000.9196"
       r="569.59998"
       gradientUnits="userSpaceOnUse"
       gradientTransform="matrix(0.59036366,0,0,0.59036366,318.87369,-200)"
       fx="136.73227"
       fy="1000.9196">
      <stop
         offset="0"
         stop-color="#ffffff"
         id="stop1753" />
      <stop
         offset="1"
         stop-color="#FFF700"
         id="stop1755"
         style="stop-color:#ffa899;stop-opacity:1;" />
    </radialGradient>
    <radialGradient
       id="radialGradient1675"
       cx="136.73227"
       cy="1000.9196"
       r="569.59998"
       gradientUnits="userSpaceOnUse"
       gradientTransform="matrix(0.59036366,0,0,0.59036366,318.87369,-200)"
       fx="136.73227"
       fy="1000.9196">
      <stop
         offset="0"
         stop-color="#ffffff"
         id="stop1671" />
      <stop
         offset="1"
         stop-color="#FFF700"
         id="stop1673"
         style="stop-color:#ffc699;stop-opacity:1;" />
    </radialGradient>
    <radialGradient
       id="a"
       cx="137.29813"
       cy="999.79913"
       r="569.59998"
       gradientUnits="userSpaceOnUse"
       fx="137.29813"
       fy="999.79913"
       gradientTransform="matrix(0.59036366,0,0,0.59036369,114.65117,-9.6409382)">
      <stop
         offset="0"
         stop-color="#ffffff"
         id="stop4" />
      <stop
         offset="1"
         stop-color="#0EF"
         id="stop6"
         style="stop-color:#e5fdff;stop-opacity:1;" />
    </radialGradient>
    <radialGradient
       id="b"
       cx="136.73227"
       cy="1000.9196"
       r="569.59998"
       gradientUnits="userSpaceOnUse"
       gradientTransform="matrix(0.59036366,0,0,0.59036366,318.88269,-209.64094)"
       fx="136.73227"
       fy="1000.9196">
      <stop
         offset="0"
         stop-color="#ffffff"
         id="stop9" />
      <stop
         offset="1"
         stop-color="#FFF700"
         id="stop11"
         style="stop-color:#fff280;stop-opacity:1;" />
    </radialGradient>
    <clipPath
       clipPathUnits="userSpaceOnUse"
       id="clipPath181">
      <rect
         style="fill:none;stroke:#000000;stroke-width:0.950473;stroke-linejoin:round"
         id="rect183"
         width="391.38297"
         height="596.22894"
         x="204.23152"
         y="-204.76497" />
    </clipPath>
    <radialGradient
       inkscape:collect="always"
       xlink:href="#radialGradient1675"
       id="radialGradient1668"
       gradientUnits="userSpaceOnUse"
       gradientTransform="matrix(0.59036366,0,0,0.59036366,114.65117,-9.6409389)"
       cx="136.73227"
       cy="1000.9196"
       fx="136.73227"
       fy="1000.9196"
       r="569.59998" />
    <radialGradient
       inkscape:collect="always"
       xlink:href="#radialGradient1757"
       id="radialGradient1738"
       gradientUnits="userSpaceOnUse"
       gradientTransform="matrix(0.59036366,0,0,0.59036366,114.65117,-9.6409389)"
       cx="136.73227"
       cy="1000.9196"
       fx="136.73227"
       fy="1000.9196"
       r="569.59998" />
    <clipPath
       clipPathUnits="userSpaceOnUse"
       id="clipPath1949">
      <rect
         style="fill:none;stroke:#000000;stroke-width:0.619492;stroke-linejoin:round"
         id="rect1951"
         width="159.15591"
         height="627.07135"
         x="114.65118"
         y="-9.6409388" />
    </clipPath>
  </defs>
  <g
     id="g1574"
     clip-path="url(#clipPath1949)"
     transform="matrix(1.6938712,0,0,1.6938712,-194.20433,16.330509)">
    <rect
       fill="#ffffff"
       width="800"
       height="800"
       id="rect2"
       x="-204.23152"
       y="200" />
    <rect
       fill="url(#a)"
       width="1200"
       height="1226.015"
       id="rect16"
       style="fill:url(#a);stroke-width:1.51617"
       x="-404.23151"
       y="-26.01498" />
    <path
       fill="url(#b)"
       d="m 998.7,439.2 c 1.7,-26.5 1.7,-52.7 0.1,-78.5 L 401,399.9 c 0,0 0,-0.1 0,-0.1 L 988.6,282.9 C 983.5,257 976.7,231.7 968.3,207.1 L 400.9,399.7 c 0,0 0,-0.1 0,-0.1 l 537.3,-265 C 926.6,111.1 913.4,88.4 898.9,66.7 L 400.8,399.5 c 0,0 0,-0.1 -0.1,-0.1 L 851.1,4.4 c -17.3,-19.7 -35.8,-38.2 -55.5,-55.5 l -395,450.4 c 0,0 -0.1,0 -0.1,-0.1 L 733.4,-99 c -21.7,-14.5 -44.4,-27.6 -68,-39.3 l -265,537.4 c 0,0 -0.1,0 -0.1,0 l 192.6,-567.4 c -24.6,-8.3 -49.9,-15.1 -75.8,-20.2 L 400.2,399 c 0,0 -0.1,0 -0.1,0 l 39.2,-597.7 c -26.5,-1.7 -52.7,-1.7 -78.5,-0.1 L 399.9,399 c 0,0 -0.1,0 -0.1,0 L 282.9,-188.6 c -25.9,5.1 -51.2,11.9 -75.8,20.3 l 192.6,567.4 c 0,0 -0.1,0 -0.1,0 l -265,-537.3 c -23.5,11.6 -46.2,24.8 -67.9,39.3 l 332.8,498.1 c 0,0 -0.1,0 -0.1,0.1 L 4.4,-51.1 c -19.7,17.2 -38.2,35.8 -55.5,55.5 l 450.4,395 c 0,0 0,0.1 -0.1,0.1 L -99,66.6 c -14.5,21.7 -27.6,44.4 -39.3,68 l 537.4,265 c 0,0 0,0.1 0,0.1 L -168.3,207.1 c -8.3,24.6 -15.1,49.9 -20.2,75.8 L 399,399.8 c 0,0 0,0.1 0,0.1 l -597.7,-39.2 c -1.7,26.5 -1.7,52.7 -0.1,78.5 L 399,400.1 c 0,0 0,0.1 0,0.1 l -587.6,116.9 c 5.1,25.9 11.9,51.2 20.3,75.8 L 399.1,400.3 c 0,0 0,0.1 0,0.1 l -537.3,265 c 11.6,23.5 24.8,46.2 39.3,67.9 L 399.2,400.5 c 0,0 0,0.1 0.1,0.1 l -450.4,395 c 17.3,19.7 35.8,38.2 55.5,55.5 l 395,-450.4 c 0,0 0.1,0 0.1,0.1 L 66.6,899 c 21.7,14.5 44.4,27.6 68,39.3 l 265,-537.4 c 0,0 0.1,0 0.1,0 L 207.1,968.3 c 24.6,8.3 49.9,15.1 75.8,20.2 L 399.8,401 c 0,0 0.1,0 0.1,0 l -39.2,597.7 c 26.5,1.7 52.7,1.7 78.5,0.1 L 400.1,401 c 0,0 0.1,0 0.1,0 l 116.9,587.6 c 25.9,-5.1 51.2,-11.9 75.8,-20.3 L 400.3,400.9 c 0,0 0.1,0 0.1,0 l 265,537.3 c 23.5,-11.6 46.2,-24.8 67.9,-39.3 L 400.5,400.8 c 0,0 0.1,0 0.1,-0.1 l 395,450.4 c 19.7,-17.3 38.2,-35.8 55.5,-55.5 l -450.4,-395 c 0,0 0,-0.1 0.1,-0.1 L 899,733.4 c 14.5,-21.7 27.6,-44.4 39.3,-68 l -537.4,-265 c 0,0 0,-0.1 0,-0.1 l 567.4,192.6 c 8.3,-24.6 15.1,-49.9 20.2,-75.8 L 401,400.2 c 0,0 0,-0.1 0,-0.1 z"
       id="path18"
       style="fill:url(#b);fill-opacity:0.8;stroke:#f400d7;stroke-width:0.295182;stroke-dasharray:0.0737955, 0.0737955;stroke-dashoffset:0;stroke-opacity:1"
       transform="translate(-204.23152,200)"
       clip-path="none" />
    <path
       id="path1666"
       clip-path="none"
       style="fill:url(#radialGradient1668);fill-opacity:0.8"
       d="m 190.72266,10.662109 c -7.57291,0.06595 -15.24696,0.23919 -22.85157,0.59375 9.30469,142.246091 18.60938,284.492191 27.91407,426.738281 9.32682,-142.21745 18.65364,-284.4349 27.98046,-426.652343 -11.01517,-0.534795 -22.02737,-0.716037 -33.04296,-0.679688 z M 68.556641,24.369141 C 50.968694,28.253867 33.535145,32.93356 16.369141,38.441406 62.145182,173.30339 107.92122,308.16536 153.69727,443.02734 125.90885,303.34635 98.120443,163.66536 70.332031,23.984375 c -0.591797,0.128255 -1.183594,0.25651 -1.77539,0.384766 z M 237.84766,442.98438 C 283.61523,308.14974 329.38281,173.3151 375.15039,38.480469 357.41172,32.829379 339.37275,28.012488 321.19727,24.097656 293.41406,163.72656 265.63086,303.35547 237.84766,442.98438 Z m 39.0625,16.39648 C 356.0599,340.93034 435.20964,222.47982 514.35938,104.0293 498.67265,93.943524 482.49363,84.628592 465.9375,76.046875 402.92839,203.82487 339.91927,331.60286 276.91016,459.38086 Z M -75.476562,76.679688 C -91.625335,85.109637 -107.43031,94.267235 -122.72656,104.125 -43.632812,222.5026 35.460937,340.88021 114.55469,459.25781 51.567708,331.54753 -11.419271,203.83724 -74.40625,76.126953 c -0.356771,0.184245 -0.713542,0.36849 -1.070312,0.552735 z M -202.09766,165.1875 c -11.96943,10.95815 -23.51063,22.45592 -34.55041,34.38669 -1.17365,1.29878 -2.46776,2.61435 -3.55115,3.918 5.49906,4.90512 11.07945,9.72824 16.60977,14.60184 101.47904,88.99535 202.958072,177.9907 304.437106,266.98605 C -13.022786,378.04362 -106.89323,271.00716 -200.76367,163.9707 c -0.44466,0.4056 -0.88932,0.8112 -1.33399,1.2168 z M 310.69336,485.07617 C 417.71875,391.21484 524.74414,297.35352 631.76953,203.49219 619.3723,189.86124 606.36396,176.8418 592.74826,164.42564 c -0.47579,-0.83065 -0.85483,0.0746 -1.26214,0.47266 C 497.88853,271.62425 404.29095,378.35021 310.69336,485.07617 Z M -301.35352,283.17969 c -9.61909,15.1496 -18.58603,30.70049 -26.83007,46.65429 C -200.4043,392.8418 -72.625,455.84961 55.154297,518.85742 -63.302083,439.70508 -181.75846,360.55273 -300.21484,281.40039 c -0.37956,0.5931 -0.75912,1.1862 -1.13868,1.7793 z M 336.50586,518.78711 C 464.21224,455.80208 591.91862,392.81706 719.625,329.83203 c -8.46516,-16.38285 -17.7268,-32.35645 -27.69238,-47.87627 -0.25359,-0.8854 -0.8922,0.0758 -1.37097,0.27036 -118.0186,78.85367 -236.03719,157.70733 -354.05579,236.56099 z m 16.24023,39.14258 C 492.42057,530.14258 632.09505,502.35547 771.76953,474.56836 767.84569,456.35828 763.02218,438.34197 757.32227,420.60742 622.46354,466.38151 487.60482,512.1556 352.74609,557.92969 Z M -366.38672,422.56055 c -5.34167,17.14062 -9.97186,34.47287 -13.75586,52.0039 139.63151,27.78516 279.26302,55.57032 418.894533,83.35547 -134.841146,-45.77018 -269.682293,-91.54036 -404.523433,-137.31054 -0.20508,0.65039 -0.41016,1.30078 -0.61524,1.95117 z m -26.60742,151.38672 c -0.76319,17.99258 -0.78939,35.95713 0.0273,53.94921 142.24219,-9.30468 284.48438,-18.60937 426.726566,-27.91406 -142.221356,-9.32682 -284.442706,-18.65364 -426.664066,-27.98047 -0.0299,0.64844 -0.0599,1.29688 -0.0898,1.94532 z m 1176.93945,-1.90625 c -142.05732,9.31278 -284.11458,18.62777 -426.17187,27.9414 142.2181,9.30469 284.4362,18.60938 426.65429,27.91406 0.89014,-18.64057 0.90691,-37.24857 0.0801,-55.88867 -0.1875,0.0111 -0.375,0.0221 -0.5625,0.0332 z M -380.23438,725.43164 c 2.69012,12.47787 5.81072,24.86168 9.30774,37.05919 1.62848,5.65983 3.33615,11.29709 5.13953,16.9037 134.85938,-45.77474 269.718751,-91.54948 404.578126,-137.32422 -139.675126,27.78711 -279.350256,55.57422 -419.025396,83.36133 z m 1137.52149,53.95117 c 5.64487,-17.73585 10.45844,-35.73816 14.38477,-53.95312 C 632.04102,697.64583 492.41016,669.86198 352.7793,642.07812 487.61523,687.84635 622.45117,733.61458 757.28711,779.38281 Z M 691.73828,918.59375 C 701.82021,902.90423 711.14943,886.73254 719.7168,870.16797 591.93815,807.15951 464.15951,744.15104 336.38086,681.14258 454.83333,760.29297 573.28581,839.44336 691.73828,918.59375 Z M -328.08789,870.16797 c 8.55849,16.5536 17.9023,32.6718 27.98047,48.32617 C -181.73112,839.40039 -63.354818,760.30664 55.021484,681.21289 -72.681641,744.19792 -200.38477,807.18294 -328.08789,870.16797 Z M 592.27344,1036.002 c 13.79858,-12.5471 26.95975,-25.7144 39.49804,-39.49419 C 524.74284,902.64453 417.71419,808.78125 310.68555,714.91797 404.54818,821.94596 498.41081,928.97396 592.27344,1036.002 Z m -832.50782,-39.49419 c 12.53214,13.77689 25.71698,26.96019 39.49219,39.49419 C -106.87891,928.97461 -13.015625,821.94727 80.847656,714.91992 -26.179688,808.78255 -133.20703,902.64518 -240.23438,996.50781 Z m 117.41016,99.46289 c 15.68847,10.0829 31.866734,19.399 48.421876,27.9824 C -11.393229,996.17513 51.615885,868.39714 114.625,740.61914 35.47526,859.06966 -43.674479,977.52018 -122.82422,1095.9707 Z m 588.75977,27.8867 c 16.53053,-8.5419 32.64908,-17.8982 48.31445,-27.9726 C 435.17768,977.4922 356.07486,859.12001 276.98047,740.74219 339.96549,868.44727 402.95052,996.15234 465.93555,1123.8574 Z m -144.73633,52.1465 c 12.47907,-2.6902 24.86489,-5.8086 37.06267,-9.3092 5.65967,-1.6282 11.29574,-3.3388 16.90217,-5.142 -45.77539,-134.86 -91.55078,-269.72002 -137.32617,-404.58004 27.78711,139.67708 55.57422,279.35414 83.36133,419.03124 z M 16.384766,1161.5195 c 17.729677,5.6387 35.74518,10.4559 53.953125,14.3907 C 98.123047,1036.2767 125.9082,896.64323 153.69336,757.00977 107.92383,891.84635 62.154297,1026.6829 16.384766,1161.5195 Z m 151.384764,27.1367 c 18.63202,0.8784 37.24274,0.9256 55.87305,0.08 -6.4951,-100 -13.07314,-199.99469 -19.60268,-299.9925 -2.7633,-42.24598 -5.5266,-84.49196 -8.2899,-126.73794 -9.32682,142.2168 -18.65365,284.43364 -27.98047,426.65034 z" />
    <path
       id="path1736"
       clip-path="none"
       style="fill:url(#radialGradient1738);fill-opacity:0.8"
       d="m 185.64844,26.068359 c -0.41435,0.160486 -1.50769,-0.298681 -1.40815,0.332563 3.85675,58.936021 7.71351,117.872038 11.57026,176.808058 3.86784,-59.01562 7.73567,-118.031246 11.60351,-177.046871 -5.51833,-0.100956 -11.16583,-0.10392 -16.64062,-0.148437 -1.70834,0.01823 -3.41667,0.03646 -5.125,0.05469 z M 53.484375,43.765625 C 47.638548,45.270982 41.807193,46.834372 36.009766,48.517578 54.980405,104.46466 73.94871,160.4042 92.945312,216.3418 81.420573,158.40625 69.895833,100.4707 58.371094,42.535156 c -1.628906,0.410156 -3.257813,0.820313 -4.886719,1.230469 z M 298.61719,216.23633 C 317.58464,160.35742 336.55208,104.47852 355.51953,48.599609 348.09804,46.453628 340.66017,44.463143 333.16211,42.634766 321.64714,100.50195 310.13216,158.36914 298.61719,216.23633 Z m 95.58593,39.96875 c 32.85547,-49.16927 65.71094,-98.33854 98.56641,-147.50781 -6.62272,-4.00486 -13.32413,-7.87962 -20.10547,-11.609379 C 446.51042,150.12695 420.35677,203.16602 394.20312,256.20508 Z M -85.710938,99.738281 c -5.178238,2.932349 -10.344797,5.929379 -15.441402,9.031249 32.766923,49.04167 65.53385,98.08333 98.3007775,147.125 C -28.945964,202.98698 -55.040365,150.07943 -81.134766,97.171875 c -1.52539,0.855469 -3.050781,1.710938 -4.576172,2.566406 z M -205.63672,189.7207 c -4.2218,4.14563 -8.43789,8.38402 -12.54297,12.67774 44.30013,38.85221 88.60026,77.70442 132.900393,116.55664 -38.857423,-44.30599 -77.714843,-88.61198 -116.572263,-132.91797 -1.26172,1.22786 -2.52344,2.45573 -3.78516,3.68359 z m 682.46094,129.22071 c 44.29297,-38.84375 88.58594,-77.6875 132.8789,-116.53125 -5.33662,-5.56156 -10.78422,-11.01688 -16.3496,-16.34961 -38.8431,44.29362 -77.6862,88.58724 -116.5293,132.88086 z m -775.17578,-11.23047 c -2.99354,5.09544 -5.96073,10.20692 -8.80274,15.38867 53.04037,26.15299 106.08073,52.30599 159.1211,78.45898 -49.16927,-32.85351 -98.33854,-65.70703 -147.50782,-98.56054 -0.93684,1.57096 -1.87369,3.14192 -2.81054,4.71289 z m 838.21679,93.66992 c 52.9056,-26.0931 105.8112,-52.1862 158.7168,-78.2793 -3.73324,-6.7632 -7.58376,-13.42371 -11.5957,-20.02539 -49.04037,32.76823 -98.08073,65.53646 -147.1211,98.30469 z m 39.58008,95.79492 c 57.92709,-11.52344 115.85417,-23.04687 173.78125,-34.57031 -1.84514,-7.51308 -3.82612,-14.96806 -5.99218,-22.38086 -55.92969,18.98372 -111.85938,37.96745 -167.78907,56.95117 z m -936.58789,-51.57031 c -1.55155,5.6471 -3.06951,11.30449 -4.45703,16.99414 57.86263,11.51367 115.72526,23.02734 173.58789,34.54101 -55.87435,-18.96549 -111.7487,-37.93098 -167.62305,-56.89648 -0.5026,1.78711 -1.0052,3.57422 -1.50781,5.36133 z m -21.00586,148.17578 c -0.0448,5.90301 -0.0689,11.85286 0.0488,17.76563 59.0306,-3.86329 118.0612,-7.72657 177.0918,-11.58985 -59.02214,-3.86849 -118.04427,-7.73698 -177.06641,-11.60547 -0.0247,1.8099 -0.0495,3.61979 -0.0742,5.42969 z M 768.0957,588.45898 c -57.42556,3.76202 -114.95327,7.53587 -172.41812,11.30244 -1.04422,0.0685 -2.08844,0.13692 -3.13266,0.20538 59.01953,3.86198 118.03906,7.72396 177.0586,11.58593 0.16519,-7.72458 0.17345,-15.45964 0.0234,-23.17968 -0.51041,0.0286 -1.02083,0.0573 -1.53125,0.0859 z m -1129.78711,148.9375 c 1.83596,7.51503 3.83777,14.96094 5.99219,22.38282 55.93229,-18.98503 111.86458,-37.97006 167.79688,-56.95508 -57.92969,11.52409 -115.85938,23.04818 -173.78907,34.57226 z m 1108.85743,22.35547 c 2.15012,-7.42036 4.13028,-14.86098 5.96484,-22.35742 -57.86589,-11.51497 -115.73177,-23.02995 -173.59766,-34.54492 55.87761,18.96745 111.75521,37.9349 167.63282,56.90234 z m -60.0918,137.25 c 4.00692,-6.6199 7.87805,-13.32181 11.61133,-20.09961 -53.03776,-26.15169 -106.07552,-52.30338 -159.11328,-78.45507 49.16731,32.85156 98.33463,65.70312 147.50195,98.55468 z m -994.1211,-20.10351 c 3.72381,6.74844 7.58631,13.41993 11.58399,20.00976 49.0319,-32.75911 98.0638,-65.51823 147.0957,-98.27734 -52.89323,26.08919 -105.78646,52.17838 -158.67969,78.26758 z m 900.40626,137.03706 c 5.5617,-5.3325 11.00806,-10.7852 16.34179,-16.34566 -44.29232,-38.8444 -88.58463,-77.6888 -132.87695,-116.5332 38.84505,44.29297 77.6901,88.58594 116.53516,132.87886 z m -811.52735,-16.34761 c 5.33456,5.56031 10.78624,11.00821 16.34375,16.34571 38.84115,-44.28907 77.68229,-88.57813 116.523439,-132.86719 -44.289059,38.84049 -88.578129,77.68099 -132.867189,116.52148 z m 116.93359,93.71681 c 6.621247,4.0056 13.324674,7.8751 20.103521,11.6074 26.151692,-53.0371 52.303385,-106.07421 78.4550778,-159.11132 -32.8528648,49.16797 -65.7057288,98.33592 -98.5585988,147.50392 z m 573.9004,11.5098 c 6.74704,-3.7211 13.41485,-7.5849 20.00195,-11.5821 -32.7487,-49.0195 -65.4974,-98.03904 -98.24609,-147.05857 26.08138,52.88021 52.16276,105.76037 78.24414,158.64067 z m -139.50196,54.6445 c 7.51407,-1.8423 14.95605,-3.8313 22.38477,-5.9922 -18.98698,-55.9362 -37.97396,-111.8724 -56.96094,-167.8086 11.52539,57.9336 23.05078,115.8672 34.57617,173.8008 z m -297.146482,-6.0625 c 7.42093,2.1484 14.860552,4.1335 22.357422,5.9668 11.514974,-57.8685 23.029948,-115.737 34.544922,-173.60549 -18.967448,55.87959 -37.934896,111.75909 -56.902344,167.63869 z m 148.101562,22.4355 c 7.72193,0.1707 15.45534,0.1716 23.17774,0.037 -3.85743,-59.0084 -7.71485,-118.0169 -11.57227,-177.02535 -3.86849,58.99605 -7.73698,117.99215 -11.60547,176.98825 z" />
  </g>
</svg>
