<?xml version="1.0" standalone="no" ?>
<!DOCTYPE svg PUBLIC "-//W3C//DTD SVG 1.1//EN" "http://www.w3.org/Graphics/SVG/1.1/DTD/svg11.dtd">
<svg width="258px" height="120px" viewBox="0 0 103 48" style="background-color: #ffffffff" xmlns="http://www.w3.org/2000/svg" xmlns:xlink="http://www.w3.org/1999/xlink" version="1.1" >
<text x="0" y="0" stroke="transparent" fill="#000000" transform="matrix(0.05 0 0 0.05 84.0207 10.5251)" style="font:normal normal normal 200px 'Arial'" >
H</text>
<text x="0" y="0" stroke="transparent" fill="#000000" transform="matrix(0.05 0 0 0.05 84.0207 19.0667)" style="font:normal normal normal 200px 'Arial'" >
N</text>
<text x="0" y="0" stroke="transparent" fill="#000000" transform="matrix(0.05 0 0 0.05 7.69341 45.1166)" style="font:normal normal normal 200px 'Arial'" >
O</text>
<path stroke="transparent" fill="#000000" transform="matrix(0.05 0 0 0.05 -407 -179)" d="M 9637.22,4039.35 L 9643.22,4035.89 L 9649.22,4039.35 L 9649.22,4323.89 L 9637.22,4323.89 L 9637.22,4039.35 Z " />
<path stroke="transparent" fill="#000000" transform="matrix(0.05 0 0 0.05 -407 -179)" d="M 9788.91,3944.85 L 9794.91,3955.24 L 9649.22,4039.35 L 9643.22,4035.89 L 9643.22,4028.96 L 9788.91,3944.85 Z " />
<path stroke="transparent" fill="#000000" transform="matrix(0.05 0 0 0.05 -407 -179)" d="M 10145,4030.69 L 10139,4041.09 L 9988.96,3954.44 L 9994.96,3944.04 L 10145,4030.69 Z " />
<path stroke="transparent" fill="#000000" transform="matrix(0.05 0 0 0.05 -407 -179)" d="M 9393.8,3898.82 L 9393.8,3884.96 L 9643.22,4028.96 L 9643.22,4035.89 L 9637.22,4039.35 L 9393.8,3898.82 Z " />
<path stroke="transparent" fill="#000000" transform="matrix(0.05 0 0 0.05 -407 -179)" d="M 9150.39,4039.35 L 9144.39,4035.89 L 9144.39,4028.96 L 9393.8,3884.96 L 9393.8,3898.82 L 9150.39,4039.35 Z " />
<path stroke="transparent" fill="#000000" transform="matrix(0.05 0 0 0.05 -407 -179)" d="M 8894.97,3898.82 L 8894.97,3884.96 L 9144.39,4028.96 L 9144.39,4035.89 L 9138.39,4039.35 L 8894.97,3898.82 Z " />
<path stroke="transparent" fill="#000000" transform="matrix(0.05 0 0 0.05 -407 -179)" d="M 8891.97,3956.95 L 8897.97,3946.55 L 9095.55,4060.62 L 9089.55,4071.02 L 8891.97,3956.95 Z " />
<path stroke="transparent" fill="#000000" transform="matrix(0.05 0 0 0.05 -407 -179)" d="M 8651.56,4039.35 L 8645.56,4035.89 L 8644.87,4029.36 L 8894.97,3884.96 L 8894.97,3898.82 L 8651.56,4039.35 Z " />
<path stroke="transparent" fill="#000000" transform="matrix(0.05 0 0 0.05 -407 -179)" d="M 8373.94,3953.95 L 8369.36,3939.84 L 8644.87,4029.36 L 8645.56,4035.89 L 8639.56,4040.25 L 8373.94,3953.95 Z " />
<path stroke="transparent" fill="#000000" transform="matrix(0.05 0 0 0.05 -407 -179)" d="M 8209.79,4179.89 L 8194.95,4179.89 L 8369.36,3939.84 L 8373.94,3953.95 L 8209.79,4179.89 Z " />
<path stroke="transparent" fill="#000000" transform="matrix(0.05 0 0 0.05 -407 -179)" d="M 8271.3,4183.42 L 8261.59,4176.36 L 8386.6,4004.31 L 8396.31,4011.36 L 8271.3,4183.42 Z " />
<path stroke="transparent" fill="#000000" transform="matrix(0.05 0 0 0.05 -407 -179)" d="M 8312.64,4321.46 L 8302.93,4328.51 L 8194.95,4179.89 L 8209.79,4179.89 L 8312.64,4321.46 Z " />
<path stroke="transparent" fill="#000000" transform="matrix(0.05 0 0 0.05 -407 -179)" d="M 8651.56,4320.43 L 8645.56,4323.89 L 8639.56,4319.53 L 8639.56,4040.25 L 8645.56,4035.89 L 8651.56,4039.35 L 8651.56,4320.43 Z " />
<path stroke="transparent" fill="#000000" transform="matrix(0.05 0 0 0.05 -407 -179)" d="M 8703.4,4293.96 L 8691.4,4293.96 L 8691.4,4065.82 L 8703.4,4065.82 L 8703.4,4293.96 Z " />
<path stroke="transparent" fill="#000000" transform="matrix(0.05 0 0 0.05 -407 -179)" d="M 8639.56,4319.53 L 8645.56,4323.89 L 8644.87,4330.42 L 8471.59,4386.72 L 8467.88,4375.31 L 8639.56,4319.53 Z " />
<path stroke="transparent" fill="#000000" transform="matrix(0.05 0 0 0.05 -407 -179)" d="M 8894.97,4460.96 L 8894.97,4474.82 L 8644.87,4330.42 L 8645.56,4323.89 L 8651.56,4320.43 L 8894.97,4460.96 Z " />
<path stroke="transparent" fill="#000000" transform="matrix(0.05 0 0 0.05 -407 -179)" d="M 9138.39,4320.43 L 9150.39,4327.35 L 8894.97,4474.82 L 8894.97,4460.96 L 9138.39,4320.43 Z " />
<path stroke="transparent" fill="#000000" transform="matrix(0.05 0 0 0.05 -407 -179)" d="M 9089.55,4288.76 L 9095.55,4299.16 L 8897.97,4413.23 L 8891.97,4402.83 L 9089.55,4288.76 Z " />
<path stroke="transparent" fill="#000000" transform="matrix(0.05 0 0 0.05 -407 -179)" d="M 9150.39,4327.35 L 9138.39,4320.43 L 9138.39,4039.35 L 9144.39,4035.89 L 9150.39,4039.35 L 9150.39,4327.35 Z " />
</svg>
